<svg width="23" height="22" viewBox="0 0 23 22" fill="none" xmlns="http://www.w3.org/2000/svg">
<path d="M10.9259 2.16096C11.0782 2.00881 11.2847 1.92334 11.5 1.92334C11.7153 1.92334 11.9218 2.00881 12.0742 2.16096L21.4884 11.5751C21.5633 11.6527 21.653 11.7146 21.7522 11.7571C21.8513 11.7996 21.9579 11.822 22.0658 11.8229C22.1737 11.8238 22.2807 11.8031 22.3805 11.7622C22.4804 11.7213 22.571 11.661 22.6473 11.5847C22.7236 11.5083 22.7838 11.4176 22.8246 11.3177C22.8655 11.2178 22.886 11.1108 22.885 11.003C22.884 10.8951 22.8615 10.7885 22.8189 10.6894C22.7763 10.5903 22.7143 10.5006 22.6367 10.4257L13.2236 1.01155C12.9973 0.785199 12.7286 0.605652 12.4328 0.483154C12.1371 0.360656 11.8201 0.297607 11.5 0.297607C11.1799 0.297607 10.863 0.360656 10.5672 0.483154C10.2715 0.605652 10.0028 0.785199 9.77644 1.01155L0.362269 10.4257C0.284704 10.5007 0.222849 10.5904 0.180314 10.6895C0.137779 10.7887 0.115416 10.8953 0.114529 11.0032C0.113643 11.1111 0.134251 11.2181 0.175152 11.3179C0.216052 11.4177 0.276425 11.5084 0.352749 11.5847C0.429072 11.6609 0.519817 11.7212 0.619689 11.762C0.719561 11.8028 0.82656 11.8233 0.934443 11.8223C1.04232 11.8213 1.14893 11.7989 1.24804 11.7563C1.34715 11.7136 1.43677 11.6517 1.51169 11.574L10.9259 2.16096Z" fill="#08C2C9"/>
<path d="M11.5 3.88452L20.3389 12.7234C20.3714 12.7552 20.4043 12.7863 20.4375 12.8166V19.5311C20.4375 20.6524 19.5275 21.5624 18.4063 21.5624H14.75C14.5345 21.5624 14.3279 21.4768 14.1755 21.3244C14.0231 21.172 13.9375 20.9653 13.9375 20.7499V15.8749C13.9375 15.6594 13.8519 15.4527 13.6995 15.3003C13.5472 15.148 13.3405 15.0624 13.125 15.0624H9.875C9.65951 15.0624 9.45285 15.148 9.30048 15.3003C9.1481 15.4527 9.0625 15.6594 9.0625 15.8749V20.7499C9.0625 20.9653 8.9769 21.172 8.82452 21.3244C8.67215 21.4768 8.46549 21.5624 8.25 21.5624H4.59375C4.05503 21.5624 3.53837 21.3483 3.15744 20.9674C2.77651 20.5865 2.5625 20.0698 2.5625 19.5311V12.8166L2.66108 12.7234L11.5 3.88452Z" fill="#08C2C9"/>
</svg>
