<svg width="24" height="20" viewBox="0 0 24 20" fill="none" xmlns="http://www.w3.org/2000/svg">
<path d="M2.83329 17.6666C2.23746 17.6666 1.72757 17.4546 1.30363 17.0307C0.879682 16.6067 0.667348 16.0965 0.666626 15.4999V2.49992C0.666626 1.90409 0.878959 1.3942 1.30363 0.970252C1.72829 0.546307 2.23818 0.333974 2.83329 0.333252H8.43954C8.72843 0.333252 9.00396 0.387419 9.26613 0.495752C9.52829 0.604085 9.75832 0.757557 9.95621 0.956168L11.5 2.49992H20.1666C20.7625 2.49992 21.2727 2.71225 21.6974 3.13692C22.122 3.56159 22.334 4.07147 22.3333 4.66659V6.83325C22.3333 7.1402 22.2293 7.39767 22.0213 7.60567C21.8133 7.81367 21.5562 7.91731 21.25 7.91659C20.9437 7.91586 20.6866 7.81186 20.4786 7.60459C20.2706 7.39731 20.1666 7.1402 20.1666 6.83325V4.66659H10.6062L8.43954 2.49992H2.83329V15.4999H10.4166C10.7236 15.4999 10.981 15.6039 11.189 15.8119C11.397 16.0199 11.5007 16.277 11.5 16.5833C11.4992 16.8895 11.3952 17.1469 11.188 17.3557C10.9807 17.5644 10.7236 17.668 10.4166 17.6666H2.83329ZM13.6666 18.7499V16.9624C13.6666 16.818 13.6937 16.6782 13.7479 16.5432C13.802 16.4081 13.8833 16.2861 13.9916 16.177L19.652 10.5437C19.8145 10.3812 19.9951 10.2638 20.1937 10.1916C20.3923 10.1194 20.5909 10.0833 20.7895 10.0833C21.0062 10.0833 21.2138 10.1241 21.4125 10.2057C21.6111 10.2873 21.7916 10.409 21.9541 10.5708L22.9562 11.5728C23.1007 11.7353 23.2137 11.9159 23.2953 12.1145C23.3769 12.3131 23.4173 12.5117 23.4166 12.7103C23.4159 12.9089 23.3798 13.1123 23.3083 13.3203C23.2368 13.5283 23.1194 13.7131 22.9562 13.8749L17.3229 19.5083C17.2145 19.6166 17.0928 19.6978 16.9578 19.752C16.8227 19.8062 16.6826 19.8333 16.5375 19.8333H14.75C14.443 19.8333 14.1859 19.7296 13.9786 19.5223C13.7713 19.3151 13.6673 19.0576 13.6666 18.7499ZM15.2916 18.2083H16.3208L19.5979 14.9041L19.1104 14.3895L18.5958 13.902L15.2916 17.1791V18.2083ZM19.1104 14.3895L18.5958 13.902L19.5979 14.9041L19.1104 14.3895Z" fill="#08C2C9"/>
</svg>
